<svg width="32" height="32" viewBox="0 0 24 24" fill="none" xmlns="http://www.w3.org/2000/svg">
  <path d="M20 9V6C20 4.89543 19.1046 4 18 4H6C4.89543 4 4 4.89543 4 6V9C4 10.1046 4.89543 11 6 11H18C19.1046 11 20 10.1046 20 9ZM4 14C4 12.8954 4.89543 12 6 12H18C19.1046 12 20 12.8954 20 14V17C20 18.1046 19.1046 19 18 19H6C4.89543 19 4 18.1046 4 17V14Z" fill="url(#paint0_linear)" stroke="url(#paint1_linear)" stroke-width="2" stroke-linejoin="round"/>
  <defs>
    <linearGradient id="paint0_linear" x1="4" y1="4" x2="20" y2="19" gradientUnits="userSpaceOnUse">
      <stop stop-color="#8B5CF6"/>
      <stop offset="1" stop-color="#6366F1"/>
    </linearGradient>
    <linearGradient id="paint1_linear" x1="4" y1="4" x2="20" y2="19" gradientUnits="userSpaceOnUse">
      <stop stop-color="#A78BFA"/>
      <stop offset="1" stop-color="#818CF8"/>
    </linearGradient>
  </defs>
</svg>